<svg height="414pt" viewBox="-6 0 414 414.41025" width="414pt" xmlns="http://www.w3.org/2000/svg" xmlns:xlink="http://www.w3.org/1999/xlink"><linearGradient id="a"><stop offset="0" stop-color="#00efd1"/><stop offset="1" stop-color="#00acea"/></linearGradient><linearGradient id="b" gradientUnits="userSpaceOnUse" x1="231.053925" x2="231.053925" xlink:href="#a" y1="-.800788" y2="427.988212"/><linearGradient id="c" gradientUnits="userSpaceOnUse" x1="46.746925" x2="46.746925" xlink:href="#a" y1="-.800788" y2="427.988212"/><linearGradient id="d" gradientUnits="userSpaceOnUse" x1="22.884925" x2="22.884925" xlink:href="#a" y1="-.800788" y2="427.988212"/><linearGradient id="e" gradientUnits="userSpaceOnUse" x1="81.410925" x2="81.410925" xlink:href="#a" y1="-.800788" y2="427.988212"/><path d="m303.695312 54.199219c-15.992187 1.195312-83.785156 18.15625-100.648437 22.5-6.953125-3.339844-13.636719-7.226563-19.980469-11.617188-8.242187-5.445312-15.359375-10.148437-24.015625-10.828125-4.765625-.375-9.558593-.378906-14.324219-.007812-.21875.003906-.4375.023437-.652343.046875-24.574219 2.089843-47.269531 13.992187-62.960938 33.019531-15.691406 19.027344-23.050781 43.574219-20.421875 68.097656 1.109375 10.101563 2.761719 22.230469 5.230469 36.015625.011719.074219.023437.144531.039063.21875 13.796874 76.132813 41.621093 149.039063 82.046874 215.011719 3.253907 5.296875 9.355469 8.140625 15.503907 7.214844 6.148437-.921875 11.152343-5.425782 12.707031-11.445313l6.59375-25.554687c6.75-26.097656 20.09375-50.019532 38.753906-69.472656l2.203125-2.292969c2.671875-2.773438 7.082031-2.863281 9.871094-.207031l2.660156 2.546874c20.414063 19.53125 35.171875 44.210938 42.726563 71.433594l6.699218 24.171875c1.601563 5.96875 6.636719 10.386719 12.761719 11.199219.746094.105469 1.503907.160156 2.257813.160156 5.367187.011719 10.347656-2.792968 13.117187-7.390625 63.476563-103.214843 82.101563-202.003906 87.550781-251.707031 2.925782-27.003906-6.296874-53.914062-25.171874-73.445312-18.878907-19.535157-45.457032-29.671876-72.546876-27.667969zm-206.246093 38.824219c11.371093-11.765626 26.25-19.523438 42.40625-22.109376l8.929687 22.238282c2.4375 6.070312 2.273438 12.871094-.457031 18.816406-2.726563 5.945312-7.78125 10.503906-13.972656 12.613281l-.039063.011719c-14.363281 4.84375-24.699218 17.464844-26.617187 32.5l-.042969.339844c-1.238281 9.484375-8.039062 17.304687-17.257812 19.851562l-10.183594 2.8125c-1.609375-9.898437-2.777344-18.773437-3.617188-26.441406-2.464844-22.3125 5.183594-44.554688 20.851563-60.632812zm288.066406 60.550781c-5.289063 48.207031-23.316406 143.890625-84.675781 244.089843l-6.394532-23.058593c-8.320312-29.996094-24.585937-57.191407-47.082031-78.71875l-2.660156-2.546875c-9.167969-8.746094-23.683594-8.4375-32.472656.6875l-2.199219 2.292968c-20.566406 21.433594-35.273438 47.796876-42.710938 76.554688l-6.296874 24.398438c-37.789063-61.9375-64.203126-130.125-78-201.355469l11.636718-3.222657c15.417969-4.253906 26.789063-17.328124 28.855469-33.1875l.042969-.339843c1.152344-9 7.347656-16.550781 15.949218-19.4375l.035157-.015625c10.34375-3.527344 18.777343-11.152344 23.332031-21.085938 4.554688-9.929687 4.828125-21.296875.757812-31.4375l-6.851562-17.058594c.339844.019532.675781.039063 1.015625.0625 4.535156.359376 9.796875 3.832032 16.449219 8.230469 18.199218 12.023438 45.691406 30.191407 108.339844 22.359375 4.355468-.582031 7.429687-4.5625 6.882812-8.921875-.542969-4.359375-4.503906-7.464843-8.867188-6.953125-18.921874 2.363282-34.152343 2.210938-46.6875.539063 27.027344-6.605469 61.484376-14.589844 70.972657-15.300781 22.351562-1.652344 44.277343 6.710937 59.851562 22.824218 15.578125 16.113282 23.1875 38.316406 20.777344 60.59375zm0 0" fill="url(#b)"/><path d="m67.640625 67.140625c3.4375-2.777344 3.972656-7.8125 1.199219-11.25l-31.734375-39.292969c-1.777344-2.269531-4.644531-3.410156-7.496094-2.976562-2.855469.433594-5.253906 2.371094-6.28125 5.066406-1.023437 2.699219-.515625 5.738281 1.328125 7.957031l31.734375 39.300781c2.773437 3.4375 7.8125 3.976563 11.25 1.199219zm0 0" fill="url(#c)"/><path d="m41.910156 74.476562-29.292968-19.164062c-2.390626-1.582031-5.445313-1.765625-8.007813-.476562-2.5625 1.289062-4.238281 3.851562-4.390625 6.714843-.15625 2.863281 1.230469 5.589844 3.640625 7.148438l29.289063 19.167969c2.394531 1.582031 5.449218 1.761718 8.011718.472656 2.558594-1.289063 4.238282-3.847656 4.390625-6.710938.15625-2.863281-1.234375-5.59375-3.640625-7.152344zm0 0" fill="url(#d)"/><path d="m80.230469 43.535156c1.023437 2.667969 3.394531 4.589844 6.21875 5.039063 2.828125.445312 5.675781-.652344 7.472656-2.875 1.800781-2.226563 2.273437-5.242188 1.242187-7.910157l-12.570312-32.671874c-1.589844-4.117188-6.214844-6.167969-10.335938-4.582032-4.121093 1.582032-6.175781 6.207032-4.597656 10.328125zm0 0" fill="url(#e)"/></svg>