<?xml version="1.0"?>
<svg xmlns="http://www.w3.org/2000/svg" xmlns:xlink="http://www.w3.org/1999/xlink" viewBox="0 0 512 512" width="512" height="512"><defs><linearGradient id="linear-gradient" x1="32.315" y1="427.628" x2="383.629" y2="76.314" gradientUnits="userSpaceOnUse"><stop offset="0" stop-color="#41dfd0"/><stop offset="1" stop-color="#ee83ef"/></linearGradient></defs><g id="gradient"><path d="M458.778,272H447.6q.394-7.284.4-14.579a273.278,273.278,0,0,0-4.756-50.949l.3-.04,45.584-6.513a8,8,0,0,0-2.262-15.838l-45.585,6.512c-.5.072-1.009.134-1.513.2a273.365,273.365,0,0,0-16.249-46.381A69.09,69.09,0,0,0,360.756,104h-9.439A83.058,83.058,0,0,0,292.2,128.488a51.251,51.251,0,0,1-72.4,0A83.057,83.057,0,0,0,160.683,104h-9.439a68.674,68.674,0,0,0-30.692,7.216l-1.4-2.794a8,8,0,0,0-14.31,0l-3.749,7.5A40.6,40.6,0,0,1,77.47,136.411a8,8,0,0,0,0,15.178,41.313,41.313,0,0,1,6.675,2.91,271.181,271.181,0,0,0-17.666,66.145l-20.115,1.577A32.94,32.94,0,0,0,48.94,288h16.8a275.306,275.306,0,0,0,19.58,75.169l-14.212,1.242A51.551,51.551,0,0,0,24,416a8,8,0,0,0,16,0,35.622,35.622,0,0,1,32.532-35.652l19.839-1.734c.155.312.305.625.46.936l40.949,81.9a48.033,48.033,0,0,0,89.562-9.831l10.6-42.392a22.739,22.739,0,0,1,44.12,0l10.6,42.392a48.033,48.033,0,0,0,89.562,9.831l40.949-81.9a271.313,271.313,0,0,0,13.019-30.64L462.02,346.3a37.222,37.222,0,0,0-3.242-74.3ZM64.4,272H48.94a16.94,16.94,0,0,1-1.325-33.828l17.156-1.345q-.765,10.237-.771,20.594Q64,264.713,64.4,272ZM112,128.991A56.288,56.288,0,0,0,126.472,144,56.288,56.288,0,0,0,112,159.009,56.288,56.288,0,0,0,97.528,144,56.288,56.288,0,0,0,112,128.991ZM97,165.517a41.262,41.262,0,0,1,4.095,6.563l3.749,7.5a8,8,0,0,0,14.31,0l3.749-7.5a40.6,40.6,0,0,1,23.626-20.491,8,8,0,0,0,0-15.178A40.615,40.615,0,0,1,129,124.9a52.755,52.755,0,0,1,22.244-4.9h9.439a67.164,67.164,0,0,1,47.805,19.8,67.268,67.268,0,0,0,95.025,0,67.162,67.162,0,0,1,47.8-19.8h9.439a53.06,53.06,0,0,1,48.2,31.037A257.67,257.67,0,0,1,423.71,192.6c-.942.082-1.885.17-2.825.244L82.819,219.362A255.1,255.1,0,0,1,97,165.517ZM404.858,372.4l-40.948,81.9a32.034,32.034,0,0,1-59.73-6.557l-10.6-42.392a38.739,38.739,0,0,0-75.164,0l-10.6,42.392a32.034,32.034,0,0,1-59.73,6.557L109.5,377.116l305.04-26.664Q410.209,361.644,404.858,372.4Zm15.449-38.508L102.132,361.7A258.528,258.528,0,0,1,80,257.421q0-11,.935-21.862l341.2-26.761q2.577-.2,5.163-.446a256.861,256.861,0,0,1-6.992,125.535Zm40.319-3.525-23.158,2.025A275.606,275.606,0,0,0,446.257,288h12.521a21.221,21.221,0,0,1,1.848,42.362ZM208,264a16,16,0,1,1-16-16A16,16,0,0,1,208,264Zm128,0a16,16,0,1,1-16-16A16,16,0,0,1,336,264Zm-50.343,50.343a8,8,0,0,1,0,11.314,41.991,41.991,0,0,1-59.314,0,8,8,0,0,1,11.314-11.314,25.969,25.969,0,0,0,36.686,0A8,8,0,0,1,285.657,314.343ZM21.47,71.589A52.73,52.73,0,0,1,52.158,98.205l4.687,9.373a8,8,0,0,0,14.31,0l4.687-9.373A52.73,52.73,0,0,1,106.53,71.589a8,8,0,0,0,0-15.178A52.73,52.73,0,0,1,75.842,29.8l-4.687-9.373a8,8,0,0,0-14.31,0L52.158,29.8A52.73,52.73,0,0,1,21.47,56.411a8,8,0,0,0,0,15.178ZM64,41.469A68.448,68.448,0,0,0,85.655,64,68.458,68.458,0,0,0,64,86.531,68.448,68.448,0,0,0,42.345,64,68.458,68.458,0,0,0,64,41.469ZM337.344,435.562c1.7-2.545,3.375-5.16,4.989-7.769a8,8,0,1,1,13.609,8.414c-1.709,2.764-3.487,5.533-5.286,8.231a8,8,0,1,1-13.312-8.876Zm17.848-31.076c2.909-5.95,5.632-12.086,8.093-18.238l5.287-13.219a8,8,0,1,1,14.856,5.942L378.14,392.19c-2.607,6.518-5.492,13.019-8.574,19.324a8,8,0,0,1-14.374-7.028Z" style="fill:url(#linear-gradient)"/></g></svg>
