<?xml version="1.0"?>
<svg xmlns="http://www.w3.org/2000/svg" xmlns:xlink="http://www.w3.org/1999/xlink" viewBox="0 0 512 512" width="512" height="512"><defs><linearGradient id="linear-gradient" x1="72.782" y1="530.707" x2="519.402" y2="84.088" gradientUnits="userSpaceOnUse"><stop offset="0" stop-color="#41dfd0"/><stop offset="1" stop-color="#ee83ef"/></linearGradient></defs><g id="gradient"><path d="M488,448H184V415.884c1.023.073,2.05.116,3.08.116a42.75,42.75,0,0,0,41.534-32.429l9.215-36.862a18.731,18.731,0,0,1,36.342,0l9.215,36.863a42.812,42.812,0,0,0,79.826,8.763l35.607-71.215A238.168,238.168,0,0,0,418.111,161.9a40.673,40.673,0,0,1,16.418-10.309,8,8,0,0,0,0-15.178A40.6,40.6,0,0,1,410.9,115.92l-3.749-7.5a7.953,7.953,0,0,0-10.881-3.48A61.145,61.145,0,0,0,347.093,80h-8.209a73.265,73.265,0,0,0-52.145,21.6,43.522,43.522,0,0,1-61.478,0A73.265,73.265,0,0,0,173.116,80h-8.209a61.126,61.126,0,0,0-55.528,35.755A236.921,236.921,0,0,0,88,214.453a239.719,239.719,0,0,0,25.181,106.666L128.621,352H92.8a20.831,20.831,0,0,1-19.788-14.264l-1.423-4.267A8,8,0,0,0,59,329.753L33.781,349.93A47.377,47.377,0,0,0,37.1,426.346l2.9,1.935v21.095A24,24,0,0,0,48,496H488a8,8,0,0,0,8-8V456A8,8,0,0,0,488,448ZM400,128.991A56.288,56.288,0,0,0,414.472,144,56.288,56.288,0,0,0,400,159.009,56.288,56.288,0,0,0,385.528,144,56.288,56.288,0,0,0,400,128.991ZM127.491,313.963A223.644,223.644,0,0,1,104,214.453a221.032,221.032,0,0,1,19.945-92.077A45.093,45.093,0,0,1,164.907,96h8.209a57.36,57.36,0,0,1,40.83,16.913,59.543,59.543,0,0,0,84.108,0A57.36,57.36,0,0,1,338.884,96h8.209a45.1,45.1,0,0,1,39.729,23.888,40.547,40.547,0,0,1-21.351,16.523,8,8,0,0,0,0,15.178A40.6,40.6,0,0,1,389.1,172.08l3.749,7.5a7.974,7.974,0,0,0,12.728,2.136,222.4,222.4,0,0,1-21.064,132.249L348.9,385.179a26.813,26.813,0,0,1-49.994-5.488l-9.215-36.864a34.729,34.729,0,0,0-67.384,0l-9.215,36.862a26.607,26.607,0,0,1-29.1,20.111,7.926,7.926,0,0,0-.069-.864c.047-.747.079-1.5.079-2.25v-9.374A35.313,35.313,0,0,0,148.687,352H146.51ZM57.75,367.8l7.858-11.787A36.792,36.792,0,0,0,92.8,368h55.887A19.285,19.285,0,0,1,167.7,384H66.422a10.423,10.423,0,0,1-8.672-16.2ZM168,426.257V448H152V431.843A34.952,34.952,0,0,0,168,426.257ZM32,386.926a31.194,31.194,0,0,1,9.7-22.674A26.417,26.417,0,0,0,66.422,400H167.7a19.285,19.285,0,0,1-19.014,16H50.422l-4.449-2.966A31.316,31.316,0,0,1,32,386.926ZM136,432v16H120V432Zm-32,0v16H88V432Zm-32,0v16H56V432Zm408,48H48a8,8,0,0,1,0-16H480ZM360.845,308.422l1.689-3.379c.716-1.431,1.413-2.895,2.071-4.347a8,8,0,0,1,14.573,6.608c-.741,1.635-1.527,3.282-2.332,4.894l-1.691,3.38a8,8,0,0,1-14.31-7.156Zm11.55-30.31A127.731,127.731,0,0,0,376,248a8,8,0,0,1,16,0,143.737,143.737,0,0,1-4.057,33.888,8,8,0,1,1-15.548-3.776ZM490.53,56.411A52.73,52.73,0,0,1,459.842,29.8l-4.687-9.373a8,8,0,0,0-14.31,0L436.158,29.8A52.73,52.73,0,0,1,405.47,56.411a8,8,0,0,0,0,15.178,52.73,52.73,0,0,1,30.688,26.616l4.687,9.373a8,8,0,0,0,14.31,0l4.687-9.373A52.73,52.73,0,0,1,490.53,71.589a8,8,0,0,0,0-15.178ZM448,86.531A68.458,68.458,0,0,0,426.345,64,68.448,68.448,0,0,0,448,41.469,68.458,68.458,0,0,0,469.655,64,68.448,68.448,0,0,0,448,86.531ZM176,206.059a16,16,0,1,1,16,16A16,16,0,0,1,176,206.059Zm128,0a16,16,0,1,1,16,16A16,16,0,0,1,304,206.059Zm-77.657,61.657A8,8,0,1,1,237.657,256.4a25.971,25.971,0,0,0,36.686,0,8,8,0,1,1,11.314,11.314,41.991,41.991,0,0,1-59.314,0Z" style="fill:url(#linear-gradient)"/></g></svg>
