<?xml version="1.0" encoding="UTF-8" standalone="no"?>
<svg
   xmlns:dc="http://purl.org/dc/elements/1.1/"
   xmlns:cc="http://creativecommons.org/ns#"
   xmlns:rdf="http://www.w3.org/1999/02/22-rdf-syntax-ns#"
   xmlns:svg="http://www.w3.org/2000/svg"
   xmlns="http://www.w3.org/2000/svg"
   xmlns:sodipodi="http://sodipodi.sourceforge.net/DTD/sodipodi-0.dtd"
   xmlns:inkscape="http://www.inkscape.org/namespaces/inkscape"
   inkscape:version="1.0 (4035a4fb49, 2020-05-01)"
   id="svg350"
   version="1.1"
   sodipodi:docname="logo.svg"
   viewBox="-60 -60 229.31254 120.298"
   height="120.298mm"
   width="229.31255mm">
  <defs
     id="defs352">
    <clipPath
       clipPathUnits="userSpaceOnUse"
       id="clipPath184">
      <path
         d="M 0,3146.46 H 2976.38 V 0 H 0 Z"
         id="path182" />
    </clipPath>
  </defs>
  <sodipodi:namedview
     inkscape:document-rotation="0"
     id="namedview340"
     inkscape:snap-grids="true"
     inkscape:snap-bbox-edge-midpoints="true"
     inkscape:bbox-nodes="true"
     inkscape:bbox-paths="true"
     inkscape:window-maximized="1"
     inkscape:window-y="-8"
     inkscape:window-x="-8"
     inkscape:window-height="1017"
     inkscape:window-width="1920"
     inkscape:snap-bbox-midpoints="true"
     inkscape:snap-bbox="true"
     inkscape:snap-global="true"
     inkscape:guide-bbox="true"
     showguides="true"
     units="mm"
     showgrid="false"
     inkscape:current-layer="Template"
     inkscape:document-units="mm"
     inkscape:cy="293.75252"
     inkscape:cx="223.70163"
     inkscape:zoom="1.8234201"
     inkscape:pageshadow="2"
     inkscape:pageopacity="0.0"
     borderopacity="1.0"
     bordercolor="#666666"
     pagecolor="#ffffff">
    <sodipodi:guide
       id="guide2827"
       position="225.95937,255.78052"
       orientation="1,0" />
    <sodipodi:guide
       id="guide2829"
       position="225.95937,255.78052"
       orientation="0,1" />
    <inkscape:grid
       originy="-28.710873"
       originx="-0.81227714"
       spacingy="0.1mm"
       spacingx="0.1mm"
       dotted="false"
       units="mm"
       snapvisiblegridlinesonly="true"
       enabled="true"
       visible="true"
       empspacing="10"
       id="grid3072"
       type="xygrid" />
  </sodipodi:namedview>
  <metadata
     id="metadata2822">
    <rdf:RDF>
      <cc:Work
         rdf:about="">
        <dc:format>image/svg+xml</dc:format>
        <dc:type
           rdf:resource="http://purl.org/dc/dcmitype/StillImage" />
        <dc:title></dc:title>
      </cc:Work>
    </rdf:RDF>
  </metadata>
  <g
     transform="translate(-0.81227718,-28.710871)"
     style="fill:none;stroke:#000000;stroke-width:0.05"
     id="Template"
     inkscape:groupmode="layer"
     inkscape:label="Layer 1">
    <g
       id="g174"
       transform="matrix(0.09977419,0,0,-0.09977419,-33.890689,-20.974373)">
      <path
         d="m 0,0 h -152.592 v -106.151 h 140.228 v -79.01 h -140.228 v -167.972 h -97.406 V 79.312 H 0 Z"
         style="fill:#913aa2;fill-opacity:1;fill-rule:nonzero;stroke:none"
         id="path176" />
    </g>
    <g
       id="g178"
       transform="matrix(0.09977419,0,0,-0.09977419,-95.81393,188.02786)">
      <g
         id="g180"
         clip-path="url(#clipPath184)">
        <g
           id="g186"
           transform="translate(853.5293,1867.0713)">
          <path
             d="M 0,0 V 20.808 L -56.091,13.57 c -30.963,-4.024 -46.441,-17.995 -46.441,-41.917 0,-10.857 3.769,-19.753 11.308,-26.689 7.539,-6.936 17.741,-10.403 30.609,-10.403 17.891,0 32.466,6.181 43.727,18.545 C -5.631,-34.529 0,-18.9 0,0 M 89.564,-125.451 H -0.604 v 44.33 H -1.81 c -20.709,-34.581 -51.369,-51.869 -91.977,-51.869 -29.959,0 -53.528,8.49 -70.717,25.482 -17.189,16.987 -25.784,39.656 -25.784,68.003 0,59.908 35.481,94.489 106.453,103.738 L 0,75.391 c 0,33.776 -18.297,50.663 -54.885,50.663 -36.791,0 -71.773,-10.96 -104.945,-32.87 v 71.772 c 13.269,6.833 31.41,12.864 54.433,18.094 23.018,5.225 43.977,7.841 62.876,7.841 88.057,0 132.085,-43.93 132.085,-131.784 z"
             style="fill:#913aa2;fill-opacity:1;fill-rule:nonzero;stroke:none"
             id="path188" />
        </g>
        <g
           id="g190"
           transform="translate(2110.8584,1741.0811)">
          <path
             d="m 0,0 -95.294,0.146 0.472,308.803 95.294,-0.146 z m -46.497,357.728 c -16.086,0.025 -29.245,4.818 -39.483,14.385 -10.239,9.562 -15.347,21.284 -15.327,35.156 0.023,14.273 5.167,25.927 15.434,34.958 10.267,9.031 23.439,13.535 39.525,13.51 16.286,-0.025 29.495,-4.569 39.636,-13.631 C 3.424,433.043 8.485,421.374 8.463,407.101 8.441,392.625 3.344,380.769 -6.819,371.54 -16.988,362.306 -30.212,357.703 -46.497,357.728"
             style="fill:#913aa2;fill-opacity:1;fill-rule:nonzero;stroke:none"
             id="path192" />
        </g>
        <g
           id="g194"
           transform="translate(2285.1338,1740.8145)">
          <path
             d="m 0,0 -95.294,0.146 0.699,457.173 95.294,-0.146 z"
             style="fill:#913aa2;fill-opacity:1;fill-rule:nonzero;stroke:none"
             id="path196" />
        </g>
        <g
           id="g198"
           transform="translate(2665.4063,2049.0361)">
          <path
             d="m 0,0 -125.96,-333.339 c -30.28,-80.171 -75.779,-120.209 -136.492,-120.116 -23.122,0.035 -42.116,2.68 -56.984,7.928 l 0.117,75.994 c 12.654,-7.455 26.416,-11.198 41.297,-11.221 24.525,-0.038 41.633,11.5 51.318,34.602 l 16.344,38.274 -124.98,308.391 105.548,-0.161 57.312,-187.964 c 3.601,-11.667 6.392,-25.445 8.38,-41.327 l 1.206,-0.002 c 1.829,11.654 5.165,25.22 10.014,40.696 l 58.49,188.39 z"
             style="fill:#913aa2;fill-opacity:1;fill-rule:nonzero;stroke:none"
             id="path200" />
        </g>
        <g
           id="g202"
           transform="translate(466.7568,1358.6123)">
          <path
             d="m 0,0 v -274.123 h 48.25 c 42.22,0 75.34,12.666 99.366,37.997 24.022,25.332 36.037,59.81 36.037,103.438 0,41.21 -11.912,73.628 -35.736,97.254 C 124.094,-11.813 90.667,0 47.647,0 Z M -97.406,-353.133 V 79.312 H 55.79 c 153.595,0 230.396,-70.265 230.396,-210.794 0,-67.353 -20.959,-121.13 -62.877,-161.337 -41.917,-40.212 -97.759,-60.314 -167.519,-60.314 z"
             style="fill:#54c5b2;fill-opacity:1;fill-rule:nonzero;stroke:none"
             id="path204" />
        </g>
        <g
           id="g206"
           transform="translate(992.0952,1191.2441)">
          <path
             d="m 0,0 c 0,44.226 -17.896,66.344 -53.679,66.344 -15.28,0 -28.497,-6.333 -39.655,-18.998 C -104.492,34.68 -111.277,18.895 -113.69,0 Z m 88.359,-58.504 h -201.446 c 3.214,-44.835 31.462,-67.249 84.74,-67.249 33.973,0 63.828,8.038 89.565,24.125 v -68.757 c -28.55,-15.281 -65.642,-22.919 -111.278,-22.919 -49.861,0 -88.561,13.821 -116.102,41.465 -27.546,27.641 -41.315,66.194 -41.315,115.651 0,51.266 14.876,91.874 44.632,121.833 29.751,29.953 66.344,44.932 109.77,44.932 45.032,0 79.863,-13.372 104.492,-40.108 24.625,-26.74 36.942,-63.027 36.942,-108.865 z"
             style="fill:#54c5b2;fill-opacity:1;fill-rule:nonzero;stroke:none"
             id="path208" />
        </g>
        <g
           id="g210"
           transform="translate(2121.9707,1010.1885)">
          <path
             d="m 0,0 c -14.075,-7.436 -35.283,-11.158 -63.631,-11.158 -67.149,0 -100.723,34.878 -100.723,104.642 v 141.435 h -50.059 v 70.265 h 50.059 v 66.645 l 94.994,27.142 V 305.184 H 0 V 234.919 H -69.36 V 110.071 c 0,-32.169 12.764,-48.251 38.298,-48.251 10.051,0 20.403,2.912 31.062,8.745 z"
             style="fill:#54c5b2;fill-opacity:1;fill-rule:nonzero;stroke:none"
             id="path212" />
        </g>
        <g
           id="g214"
           transform="translate(2355.9873,1132.0205)">
          <path
             d="M 0,0 V 20.808 L -56.091,13.57 c -30.962,-4.023 -46.441,-17.995 -46.441,-41.918 0,-10.855 3.769,-19.752 11.308,-26.688 7.54,-6.936 17.742,-10.403 30.61,-10.403 17.891,0 32.466,6.181 43.726,18.545 C -5.631,-34.529 0,-18.899 0,0 M 89.565,-125.451 H -0.603 v 44.33 h -1.206 c -20.71,-34.581 -51.37,-51.869 -91.977,-51.869 -29.959,0 -53.528,8.491 -70.718,25.482 -17.188,16.987 -25.783,39.655 -25.783,68.003 0,59.907 35.48,94.488 106.452,103.738 L 0,75.392 c 0,33.775 -18.296,50.663 -54.885,50.663 -36.791,0 -71.772,-10.961 -104.944,-32.871 v 71.772 c 13.268,6.832 31.41,12.863 54.433,18.094 23.017,5.225 43.976,7.841 62.875,7.841 88.058,0 132.086,-43.93 132.086,-131.785 z"
             style="fill:#54c5b2;fill-opacity:1;fill-rule:nonzero;stroke:none"
             id="path216" />
        </g>
        <path
           d="m 2629.208,1006.569 h -95.294 v 457.173 h 95.294 z"
           style="fill:#54c5b2;fill-opacity:1;fill-rule:nonzero;stroke:none"
           id="path218" />
        <g
           id="g220"
           transform="translate(1175.4023,1400.2529)">
          <path
             d="m 0,0 c -6.601,-84.296 -15.422,-171.783 16.637,-252.158 21.673,-54.339 60.214,-102.695 102.576,-142.476 7.872,-7.388 15.156,-15.546 26.81,-12.553 17.419,4.481 45.461,4.718 45.766,27.433 0.13,10.123 -3.485,21.557 -4.852,31.584 -3.841,28.014 -6.271,56.214 -7.762,84.448 -3.695,69.806 -0.2,142.064 24.967,207.909 11.421,29.878 29.202,57.373 53.301,78.472 8.194,7.163 17.634,12.75 27.372,17.489 11.047,5.384 27.831,5.096 -7.874,-1.062 3.717,0.628 7.494,0.837 11.258,0.91 44.767,0.887 80.915,-36.312 102.497,-71.337 37.341,-60.626 42.601,-137.42 42.324,-206.757 -0.187,-49.254 -4.757,-98.881 -12.937,-147.441 -6.044,-35.843 49.549,-19.557 65.089,-5.965 42.098,36.826 77.303,82.544 102.26,132.527 41.385,82.889 30.9,179.269 23.816,268.434 0.148,-1.915 -35.098,-6.903 -34.899,-9.36 7.745,-97.527 15.568,-194.753 -31.816,-283.93 -16.659,-31.369 -38.832,-59.817 -62.7,-85.99 -12.207,-13.361 -25.652,-29.319 -41.848,-37.962 11.631,3.124 23.269,6.231 34.906,9.355 -34.098,-2.673 -14.779,56.457 -12.705,75.082 6.276,56.378 7.925,113.456 2.463,169.948 -7.418,76.867 -50.87,215.484 -152.808,201.836 -25.218,-3.378 -53.536,-11.835 -75.342,-24.941 -52.149,-31.318 -74.961,-97.707 -85.445,-154.113 -10.917,-58.778 -9.211,-120.06 -4.268,-179.37 1.684,-20.252 4.138,-40.448 7.084,-60.547 1.977,-13.439 6.818,-25.2 -4.709,-35.64 2.867,0.824 5.739,1.633 8.612,2.463 -2.762,-0.751 -5.53,-1.497 -8.29,-2.248 8.765,2.299 17.53,4.598 26.302,6.875 -15.328,2.7 -28.011,19.619 -38.317,30.132 -25.627,26.143 -47.806,55.491 -66.462,86.962 C 18.068,-192.645 27.121,-90.013 34.914,9.36 34.615,5.609 0.336,4.26 0,0"
             style="fill:#913aa2;fill-opacity:1;fill-rule:nonzero;stroke:none"
             id="path222" />
        </g>
        <g
           id="g224"
           transform="translate(1812.2412,1666.1885)">
          <path
             d="m 0,0 c 34.053,103.898 82.363,233.387 32.245,339.914 -27.567,58.607 -78.455,94.857 -138.154,116.962 -73.484,27.206 -140.759,1.537 -209.078,-26.06 -38.852,-15.684 -70.701,4.469 -106.624,18.804 -36.092,14.385 -73.899,21.515 -112.711,18.656 -62.425,-4.592 -129.787,-40.297 -161.959,-94.715 -27.853,-47.111 -25.066,-107.913 -17.976,-159.992 8.615,-63.331 29.452,-124.94 49.235,-185.453 3.971,-12.145 14.433,-27.15 27.101,-31.415 13.193,-4.429 11.641,11.683 9.16,19.264 -29.516,90.295 -72.367,200.452 -37.787,294.941 20.007,54.641 76.752,85.832 130.054,100.306 72.382,19.67 129.63,-16.886 196.015,-36.832 24.254,-7.293 46.91,1.593 69.289,10.617 32.415,13.101 63.236,26.065 98.214,30.898 57.244,7.9 143.086,-16.606 171.869,-71.063 C 20.862,303.283 13.055,247.295 5.609,203.091 -3.525,148.859 -21.41,96.198 -38.493,44.069 -44.486,25.766 -5.502,-16.795 0,0"
             style="fill:#913aa2;fill-opacity:1;fill-rule:nonzero;stroke:none"
             id="path226" />
        </g>
        <path
           d="M 2632,1527.725 H 367.091 v 21.873 H 2632 Z"
           style="fill:#913aa2;fill-opacity:1;fill-rule:nonzero;stroke:none"
           id="path228" />
      </g>
    </g>
  </g>
</svg>
